<svg aria-hidden="true" style="position: absolute; width: 0; height: 0; overflow: hidden;" version="1.1" xmlns="http://www.w3.org/2000/svg" xmlns:xlink="http://www.w3.org/1999/xlink">
<defs>
<symbol id="icon-reddit-alien" viewBox="0 0 28 28">
<path d="M28 13.219c0 1.219-0.688 2.266-1.703 2.781 0.125 0.484 0.187 0.984 0.187 1.5 0 4.937-5.578 8.937-12.453 8.937-6.859 0-12.437-4-12.437-8.937 0-0.5 0.063-1 0.172-1.469-1.047-0.516-1.766-1.578-1.766-2.812 0-1.719 1.391-3.109 3.109-3.109 0.891 0 1.687 0.375 2.266 0.984 2.109-1.469 4.922-2.422 8.047-2.531l1.813-8.141c0.063-0.281 0.359-0.469 0.641-0.406l5.766 1.266c0.375-0.75 1.172-1.281 2.078-1.281 1.297 0 2.344 1.047 2.344 2.328 0 1.297-1.047 2.344-2.344 2.344-1.281 0-2.328-1.047-2.328-2.328l-5.219-1.156-1.625 7.375c3.141 0.094 5.984 1.031 8.109 2.5 0.562-0.594 1.359-0.953 2.234-0.953 1.719 0 3.109 1.391 3.109 3.109zM6.531 16.328c0 1.297 1.047 2.344 2.328 2.344 1.297 0 2.344-1.047 2.344-2.344 0-1.281-1.047-2.328-2.344-2.328-1.281 0-2.328 1.047-2.328 2.328zM19.187 21.875c0.234-0.234 0.234-0.578 0-0.812-0.219-0.219-0.578-0.219-0.797 0-0.938 0.953-2.953 1.281-4.391 1.281s-3.453-0.328-4.391-1.281c-0.219-0.219-0.578-0.219-0.797 0-0.234 0.219-0.234 0.578 0 0.812 1.484 1.484 4.344 1.594 5.187 1.594s3.703-0.109 5.187-1.594zM19.141 18.672c1.281 0 2.328-1.047 2.328-2.344 0-1.281-1.047-2.328-2.328-2.328-1.297 0-2.344 1.047-2.344 2.328 0 1.297 1.047 2.344 2.344 2.344z"></path>
</symbol>
<symbol id="icon-envelop" viewBox="0 0 32 32">
<path d="M29 4h-26c-1.65 0-3 1.35-3 3v20c0 1.65 1.35 3 3 3h26c1.65 0 3-1.35 3-3v-20c0-1.65-1.35-3-3-3zM12.461 17.199l-8.461 6.59v-15.676l8.461 9.086zM5.512 8h20.976l-10.488 7.875-10.488-7.875zM12.79 17.553l3.21 3.447 3.21-3.447 6.58 8.447h-19.579l6.58-8.447zM19.539 17.199l8.461-9.086v15.676l-8.461-6.59z"></path>
</symbol>
</defs>
</svg>
