<?xml version="1.0" encoding="UTF-8" standalone="no"?><!DOCTYPE svg PUBLIC "-//W3C//DTD SVG 1.1//EN" "http://www.w3.org/Graphics/SVG/1.1/DTD/svg11.dtd"><svg width="100%" height="100%" viewBox="0 0 2856 284" version="1.1" xmlns="http://www.w3.org/2000/svg" xmlns:xlink="http://www.w3.org/1999/xlink" xml:space="preserve" xmlns:serif="http://www.serif.com/" style="fill-rule:evenodd;clip-rule:evenodd;stroke-linejoin:round;stroke-miterlimit:2;"><path d="M162.88,164.014l63.3,0c-3.907,15.245 -11.722,28.928 -23.444,40.264c-16.411,16.028 -37.902,25.019 -60.955,25.019l-1.173,0c-23.053,0 -44.935,-9.382 -61.346,-26.192c-16.02,-16.418 -25.007,-38.7 -24.616,-61.727c0,-23.026 9.378,-44.905 25.789,-60.935c16.411,-16.421 38.292,-25.414 61.346,-25.414l0.781,0c17.583,0.391 33.994,5.474 48.061,15.248l39.459,-38.664c-23.83,-19.123 -53.916,-30.832 -87.129,-31.222l-1.172,0c-77.757,0 -140.993,62.458 -141.774,140.206c-0.781,78.536 61.672,141.386 140.211,142.167c20.709,0 54.312,-6.635 86.352,-32.002l0,27.318l54.638,0l0,-168.705l-118.328,0l0,54.639Z" style="fill-rule:nonzero;"/><path d="M514.412,4.297l-182.373,0l0,273.779l181.201,0l0,-54.639l-126.563,0l0,-59.423l105.469,0l0,-54.639l-105.469,0l0,-50.439l127.735,0l0,-54.639Z" style="fill-rule:nonzero;"/><path d="M773.787,278.076l-153.858,-159.736l0,159.736l-54.687,0l0,-273.779l17.187,0l151.123,153.098l0,-153.098l54.688,0l0,273.779l-14.453,0Z" style="fill-rule:nonzero;"/><path d="M1021.44,4.297l-182.373,0l0,273.779l181.201,0l0,-54.639l-126.563,0l0,-59.423l105.469,0l0,-54.639l-105.469,0l0,-50.439l127.735,0l0,-54.639Z" style="fill-rule:nonzero;"/><path d="M1259.72,278.076l-54.254,-117.181c28.49,-12.879 48.004,-41.369 48.004,-74.591c0,-45.321 -36.686,-82.398 -82,-82.398l-103.107,0l0,273.78l54.638,0l0,-109.375l27.362,0l51.2,109.765l58.157,0Zm-88.25,-219.531c15.244,0 27.361,12.511 27.361,27.759c0,15.248 -12.117,27.368 -27.361,27.368l-48.469,0l0,-55.127l48.469,0Z" style="fill-rule:nonzero;"/><path d="M1505.44,278.076l60.536,0l-129.274,-273.779l-16.013,0l-139.43,273.779l61.318,0l25.777,-50.781l113.262,0l23.824,50.781Zm-108.966,-105.42l30.854,-60.937l28.511,60.937l-59.365,0Z" style="fill-rule:nonzero;"/><path d="M1648.01,4.297l-54.638,0l0,273.389l156.591,0l0,-54.249l-101.953,0l0,-219.14Z" style="fill-rule:nonzero;"/><path d="M1912.12,4.297l0,54.639l76.172,0l0,219.14l54.638,0l0,-219.14l75.781,0l0,-54.639l-206.591,0Z" style="fill-rule:nonzero;"/><path d="M2338.24,4.297l-182.373,0l0,273.779l181.201,0l0,-54.639l-126.563,0l0,-59.423l105.469,0l0,-54.639l-105.469,0l0,-50.439l127.735,0l0,-54.639Z" style="fill-rule:nonzero;"/><path d="M2590.97,30.052c-24.219,-18.734 -54.687,-30.052 -87.5,-30.052c-78.125,0 -141.748,63.624 -141.748,141.772c0,78.148 63.623,141.773 141.748,141.773c34.375,0 66.016,-12.489 90.625,-32.784l-35.156,-40.219c-51.563,39.048 -136.328,8.206 -136.328,-68.77c0,-73.459 80.078,-105.475 133.203,-71.114l35.156,-40.606Z" style="fill-rule:nonzero;"/><path d="M2800.79,109.375l-101.221,0l0,-104.688l-54.639,0l0,273.389l54.639,0l0,-114.062l101.221,0l0,114.062l54.638,0l0,-273.389l-54.638,0l0,104.688Z" style="fill-rule:nonzero;"/></svg>