<?xml version="1.0" standalone="no"?>
<!DOCTYPE svg PUBLIC "-//W3C//DTD SVG 20010904//EN"
 "http://www.w3.org/TR/2001/REC-SVG-20010904/DTD/svg10.dtd">
<svg version="1.0" xmlns="http://www.w3.org/2000/svg"
 width="700.000000pt" height="700.000000pt" viewBox="0 0 700.000000 700.000000"
 preserveAspectRatio="xMidYMid meet">
<metadata>
Created by potrace 1.11, written by Peter Selinger 2001-2013
</metadata>
<g transform="translate(0.000000,700.000000) scale(0.100000,-0.100000)"
fill="#000000" stroke="none">
<path d="M3246 6439 c-870 -90 -1621 -520 -2127 -1219 -289 -398 -463 -842
-536 -1360 -26 -187 -23 -586 5 -775 78 -521 261 -966 563 -1365 509 -672
1263 -1085 2120 -1161 631 -56 1323 151 1905 569 63 45 117 82 119 82 3 0 5
-126 5 -280 l0 -280 570 0 570 0 0 1760 0 1760 -1235 0 -1235 0 0 -570 0 -570
659 0 660 0 -19 -62 c-89 -303 -240 -550 -476 -778 -283 -274 -575 -424 -979
-501 -47 -10 -148 -14 -310 -14 -211 1 -252 3 -344 23 -245 54 -495 162 -691
300 -122 86 -345 308 -433 432 -86 121 -197 342 -241 479 -184 570 -95 1157
251 1644 78 111 306 336 423 419 205 146 494 267 738 309 440 75 915 -17 1267
-245 l70 -45 125 122 c69 67 254 249 412 404 l287 283 -42 34 c-84 67 -265
185 -395 256 -313 172 -678 290 -1047 340 -108 15 -529 21 -639 9z"/>
</g>
</svg>
